<svg xmlns="http://www.w3.org/2000/svg" viewBox="0 0 800 1060" width="800" height="1060" role="img">
<defs>
  <linearGradient id="bg" x1="0" y1="0" x2="1" y2="1">
    <stop offset="0" stop-color="#F7EEE3"/><stop offset="1" stop-color="#E9DAC7"/>
  </linearGradient>
  <filter id="blur"><feGaussianBlur stdDeviation="57"/></filter>
  
</defs>
<rect width="800" height="1060" fill="url(#bg)"/>
<g filter="url(#blur)" opacity=".5"><circle cx="560" cy="300" r="260" fill="#E7C9AE"/></g>
<g stroke="#2E2338" stroke-opacity=".6" stroke-width="7" fill="none" stroke-linecap="round" stroke-linejoin="round">
  <path d="M180 340h330a40 40 0 0 1 40 40v150a40 40 0 0 1-40 40H300l-90 70v-70h-30a40 40 0 0 1-40-40V380a40 40 0 0 1 40-40z"/>
  <path d="M620 520h20a40 40 0 0 1 40 40v130a40 40 0 0 1-40 40h-10v60l-70-60H430a40 40 0 0 1-40-40v-40"/>
</g>
</svg>